<svg width="50" height="50" viewBox="0 0 167 166" fill="none" xmlns="http://www.w3.org/2000/svg">
<path d="M16 0H52.1833L49.5989 5.7652C46.8305 11.9408 45.3994 18.632 45.3994 25.3997V64.7074H0V16C0 7.16344 7.16346 0 16 0Z" fill="#6399D8"/>
<path d="M150.986 0H114.803L117.388 5.7652C120.156 11.9408 121.587 18.632 121.587 25.3997V64.7074H166.986V16C166.986 7.16344 159.823 0 150.986 0Z" fill="#6399D8"/>
<path d="M57.3291 28.9627L52.1832 27.6605C52.1832 -4.54087 73.0531 -1.72865 83.4881 3.70262C91.2999 -1.06395 116.45 -4.10958 113.759 27.6605L108.861 28.96C102.021 30.7746 97.1824 36.851 97.0056 43.9255C96.3367 70.6976 95.6328 114.479 97.0608 127.331C98.7307 142.359 113.412 148.552 120.543 149.769V165.424C88.0832 166.179 74.2216 142.819 70.3194 127.662C69.5553 124.694 69.4037 121.618 69.4037 118.553V44.4737C69.4037 37.1491 64.4299 30.7597 57.3291 28.9627Z" fill="#6399D8"/>
<path d="M62.5294 42.5684L51.6691 34.9473V62.5741L62.5294 68.2178V42.5684Z" fill="#6399D8"/>
<path d="M103.943 42.5684L114.803 34.9473V62.5741L103.943 68.2178V42.5684Z" fill="#6399D8"/>
<path d="M63.6464 78.7451C62.3317 74.308 54.4713 71.4191 50.7055 70.5293C49.7195 84.6618 38.5862 117.568 33.0401 122.293C51.3217 119.417 65.2897 84.2916 63.6464 78.7451Z" fill="#B5ED6D"/>
<path d="M102.806 78.7451C104.121 74.308 111.981 71.4191 115.747 70.5293C116.733 84.6618 127.866 117.568 133.412 122.293C115.131 119.417 101.163 84.2916 102.806 78.7451Z" fill="#B5ED6D"/>
</svg>
